<?xml version="1.0" encoding="UTF-8" standalone="no"?>
<!DOCTYPE svg PUBLIC "-//W3C//DTD SVG 1.1//EN" "http://www.w3.org/Graphics/SVG/1.1/DTD/svg11.dtd">
<svg width="100%" height="100%" viewBox="0 0 528 432" version="1.1" xmlns="http://www.w3.org/2000/svg" xmlns:xlink="http://www.w3.org/1999/xlink" xml:space="preserve" xmlns:serif="http://www.serif.com/" style="fill-rule:evenodd;clip-rule:evenodd;stroke-linejoin:round;stroke-miterlimit:2;">
    <g id="logo-agarcorp.png" transform="matrix(1,0,0,1,-31.17323,-117.996534)">
        <g>
            <path d="M282.701,117.999L307.594,117.997L311.356,118.533L316.623,118.771C317.288,118.806 317.268,118.872 324.92,119.423C327.336,119.5 327.184,119.356 329.42,119.751C330.876,119.926 339.989,121.026 347.565,122.278L350.507,122.753C351.298,122.889 351.262,122.961 360.358,124.648L364.828,125.68C378.226,128.873 378.143,128.687 391.312,132.82L394.953,133.987C407.028,138.477 406.965,138.327 418.998,143.137L420.521,143.802L427.254,146.918L430.278,148.43C434.158,150.457 434.067,150.252 437.793,152.199C438.223,152.424 438.187,152.415 443.116,155.111L444.631,155.887L446.047,156.727L448.39,158.119L457.366,163.483L462.748,167.086L467.205,170.177L470.293,172.343C474.64,175.526 480.516,180.112 481.396,180.799L483.015,182.227C488.26,186.893 488.233,186.698 493.458,191.335L498.049,195.792L501.057,198.794L504.808,202.635L507.95,206.226L510.119,208.587C517.982,218.141 517.935,218.033 525.255,228.064C529.192,234.141 529.148,234.022 530.567,236.332C535.106,244.322 535.095,244.118 539.506,252.188L540.182,253.734L541.627,256.793L543.343,260.458L544.64,263.569L546.378,267.967L549.118,275.343L550.427,279.173L553.583,290.458L554.205,292.747L554.703,295.067C554.798,295.482 554.726,295.482 555.747,300.291C556.707,305.283 556.586,305.132 557.663,312.397L557.988,316.141L558.171,317.618C558.771,328.59 558.688,328.451 558.727,339.527C558.701,340.37 558.673,340.229 558.211,350.058C556.84,362.355 554.918,371.036 554.204,374.238L553.685,376.372L551.42,384.625L550.725,386.927L550.431,387.812L549.234,391.446L546.469,399.048L543.993,404.996L543.345,406.528L541.646,410.215L540.995,411.759L539.525,414.806L537.244,419.295L536.477,420.813L533.463,426.051L532.641,427.557L528.28,434.394L525.9,438.099C524.919,439.445 521.865,444.853 506.324,462.861L501.817,467.429L494.277,474.946L491.948,477.161L489.108,479.577L487.526,481.015C477.112,489.66 477.216,489.533 466.445,497.517L464.144,499.031L455.96,504.412L453.11,506.183C435.648,516.193 435.721,516.083 417.464,524.578L409.303,527.857C401.4,530.784 401.531,530.751 394.953,532.998L391.316,534.175L390.43,534.468L387.436,535.354C383.012,536.639 363.265,543.289 330.173,547.26L326.43,547.586L320.396,548.187L315.125,548.457L312.103,548.769C308.544,549.111 306.1,548.982 278.179,548.968L274.415,548.443L269.144,548.156C260.426,547.208 260.531,547.227 251.782,546.224L248.078,545.72C242.449,544.858 242.631,544.803 229.925,542.406L224.703,541.34L223.119,540.947L218.673,539.839L217.084,539.443L213.37,538.502L206.691,536.658L204.395,535.974L203.508,535.675L199.871,534.49L194.631,532.905L190.139,531.369L187.671,530.416L184.075,529.152L174.319,525.344L172.767,524.696L166.019,521.641L158.429,517.983L153.91,515.722L146.458,511.79L145.586,511.285L142.658,509.632C136.448,505.912 136.565,506.009 130.534,502.22L129.098,501.319C123.762,497.643 117.257,493.63 101.372,480.168L99.767,478.712L95.874,475.105L92.813,472.138L91.306,470.63L87.538,466.862C85.019,464.079 84.974,464.247 82.46,461.427L81,459.827C68.11,444.807 64.588,438.709 60.605,432.855L59.76,431.382C54.712,422.844 54.675,422.988 49.332,412.511L48.602,410.97L44.676,402.03L42.371,396.02L41.31,393.114L41.008,392.211L39.812,388.582L39.506,387.689L38.397,384.023L38.219,383.317L36.95,378.729L36.436,377.171L36.097,375.749C33.536,364.482 33.699,364.552 32.113,353.139C31.137,339.476 30.621,333.276 32.087,313.909L32.269,313.12L32.655,309.383L33.134,306.343L33.584,303.399L34.146,300.346C34.601,298.316 34.449,298.453 34.868,296.585C34.963,296.157 34.959,296.189 36.099,291.238L38.115,283.832L38.396,282.962L39.506,279.297L39.812,278.402L41.016,274.775L41.324,273.871L42.424,270.983L42.63,270.318L44.062,266.511L48.634,256.03L49.332,254.464L50.112,252.997L51.622,249.98L53.761,246.162C58.254,238.523 58.109,238.55 62.729,231.058L63.621,229.616C64.397,228.533 70.533,219.979 73.47,216.194L74.872,214.542C77.978,210.891 77.821,210.887 80.984,207.164L82.461,205.553L87.573,200.152L91.31,196.36C91.832,195.799 91.974,195.645 98.264,189.773L100.628,187.541L102.691,185.905L104.278,184.479C113.856,176.651 113.756,176.738 123.827,169.394L128.347,166.372L136.611,161.094L141.265,158.235L142.65,157.4L144.165,156.625L148.017,154.438L149.47,153.694L153.928,151.286L158.431,149.013L164.488,146.052L167.295,144.844L169.747,143.741L174.995,141.477L178.769,139.964L182.532,138.457L184.777,137.66L186.318,137.006L186.986,136.764L189.904,135.76L195.315,133.892L199.871,132.495L203.508,131.31L213.369,128.482L217.087,127.548L232.235,124.097L237.478,123.145C238.385,122.981 244.292,121.916 248.831,121.237L251.795,120.855C252.523,120.775 252.496,120.736 260.874,119.744L265.375,119.424L272.914,118.788L278.185,118.545C280.198,118.417 280.143,118.702 282.701,117.999ZM316.65,146.222C126.434,135.481 24.713,278.831 68.365,387.126C125.535,528.958 326.188,554.328 439.307,482.448C574.728,396.397 546.93,252.911 445.312,188.348C388.486,152.244 340.693,148.725 316.65,146.222Z" style="fill-opacity:0.99;"/>
            <path d="M316.65,146.222C340.693,148.725 388.486,152.244 445.312,188.348C546.93,252.911 574.728,396.397 439.307,482.448C326.188,554.328 125.535,528.958 68.365,387.126C24.713,278.831 126.434,135.481 316.65,146.222Z" style="fill:rgb(253,254,254);"/>
            <path d="M384.564,424.798C385.163,423.296 393.639,402.021 396.351,394.478C417.072,336.857 427.552,308.473 427.552,308.473L432.165,308.343L386.807,429.885C385.991,428.174 384.833,426.237 384.564,424.798Z"/>
            <path d="M278.419,333.599C306.843,396.242 306.714,396.483 306.714,396.483L303.557,396.409C303.557,396.409 293.854,378.711 286.618,359.808C280.985,345.093 275.373,334.528 274.856,333.564L278.419,333.599Z"/>
            <path d="M392.605,442.571L441.963,308.39L450.032,308.365C450.032,308.365 432.696,355.784 431.121,359.848C404.811,427.766 398.487,446.254 397.124,450.479L392.605,442.571Z"/>
            <path d="M271.339,333.516L299.758,396.537L295.803,396.65L266.615,332.793L268.718,333.11L271.339,333.516Z"/>
            <path d="M235.419,218.037C236.225,219.762 253.347,256.41 255.852,261.755C273.882,300.223 275.603,305.816 275.634,305.918L275.629,305.919L268.304,304.715C266.245,298.693 234.346,229.529 232.916,226.429L232.905,226.406L235.419,218.037Z"/>
            <path d="M253.304,305.414L226.31,246.055L228.029,240.66L258.097,305.497L253.304,305.414Z"/>
            <path d="M389.041,434.4L434.981,308.314L439.199,308.17L391.14,438.738L389.041,434.4Z"/>
            <path d="M231.631,231.057L231.648,231.093L229.741,236.058L229.705,236.027L231.631,231.057Z" style="fill:rgb(6,66,160);"/>
            <path d="M231.648,231.093L266.21,304.901L261.267,305.092C260.387,303.164 249.033,278.263 248.385,276.819C246.906,273.521 230.079,236.814 229.738,236.068L229.741,236.058L229.76,236.075L229.741,236.058L231.648,231.093Z"/>
            <path d="M288.898,333.614L317.851,396.385L310.763,396.152C310.763,396.152 287.515,346.269 285.518,341.879C283.851,338.212 282.133,334.611 281.735,333.779L282.061,333.763L288.898,333.614Z"/>
            <path d="M266.615,332.793C266.615,332.793 255.771,332.551 254.824,332.552C235.653,332.57 194.499,332.587 194.499,332.587L169.838,397.72L139.649,397.117C139.649,397.117 138.55,394.994 152.002,358.234C156.086,347.073 203.516,218.303 203.516,218.303L235.39,217.974L235.419,218.037L232.905,226.406L232.866,226.321L231.62,231.033L231.631,231.057L229.705,236.027L229.741,236.058L229.738,236.068L229.732,236.057L228.003,240.606L228.029,240.66L226.31,246.055L226.277,245.983C226.277,245.983 213.632,275.862 212.426,279.152C204.998,299.415 202.563,305.825 202.563,305.825L253.444,305.723L253.419,305.668L258.129,305.566L258.138,305.585L261.32,305.21L261.308,305.182L261.303,305.173L266.291,305.075L266.323,305.142L268.349,304.853L268.304,304.715L275.629,305.919L275.634,305.92L327.819,305.949L384.531,424.882L384.564,424.798C384.833,426.237 385.991,428.174 386.807,429.885L386.767,429.991L389.002,434.506L389.041,434.4L391.14,438.738L391.098,438.853L391.017,439.073L392.256,441.962L392.565,442.68L392.605,442.571L397.124,450.479C396.858,451.303 396.78,451.585 396.78,451.585L363.307,451.276L307.83,333.936L288.831,333.469L288.898,333.614L282.061,333.763L281.731,333.77L281.649,333.6L278.365,333.48L278.415,333.59L274.851,333.554L274.818,333.492L271.329,333.492L271.334,333.503L268.718,333.11L266.615,332.793ZM275.839,306.031L275.939,306.051C275.892,306.032 275.862,306.034 275.839,306.031Z" style="fill:rgb(6,66,160);"/>
        </g>
    </g>
</svg>
